<?xml version="1.0" encoding="UTF-8"?>
<svg xmlns="http://www.w3.org/2000/svg" xmlns:xlink="http://www.w3.org/1999/xlink" viewBox="0 0 195 46">
  <defs>
    <style>
      .cls-1 {
        stroke: aqua;
        stroke-width: 1.12px;
      }

      .cls-1, .cls-2 {
        fill: none;
      }

      .cls-1, .cls-2, .cls-3 {
        stroke-miterlimit: 10;
      }

      .cls-4 {
        fill: aqua;
      }

      .cls-4, .cls-5, .cls-6, .cls-7, .cls-8 {
        stroke-width: 0px;
      }

      .cls-9 {
        isolation: isolate;
      }

      .cls-5 {
        fill: #fe8e2a;
      }

      .cls-2 {
        mix-blend-mode: multiply;
        opacity: .3;
        stroke-width: 1.5px;
      }

      .cls-2, .cls-3 {
        stroke: #4aaec1;
      }

      .cls-6 {
        fill: #131623;
      }

      .cls-7, .cls-3 {
        fill: #4aaec1;
      }

      .cls-3 {
        stroke-width: .5px;
      }

      .cls-8 {
        fill: url(#Degradado_sin_nombre_23);
      }
    </style>
    <linearGradient id="Degradado_sin_nombre_23" data-name="Degradado sin nombre 23" x1="49.9" y1="4.21" x2="49.9" y2="44.45" gradientUnits="userSpaceOnUse">
      <stop offset="0" stop-color="#e6e6e6"/>
      <stop offset=".29" stop-color="#a7a8ac"/>
      <stop offset="1" stop-color="#131623"/>
    </linearGradient>
  </defs>
  <g class="cls-9">
    <g id="Capa_1" data-name="Capa 1">
      <g>
        <path class="cls-6" d="M13.16,39.88c-2.24,0-4.27-.39-6.09-1.16-1.82-.77-3.33-1.89-4.52-3.34l4.72-5.59c.82,1.05,1.66,1.84,2.53,2.38.87.54,1.79.81,2.75.81,2.56,0,3.84-1.49,3.84-4.46v-13.15H5.82v-6.68h19.13v19.31c0,3.99-1,6.97-3.01,8.93-2.01,1.97-4.94,2.95-8.78,2.95Z"/>
        <path class="cls-6" d="M44.38,40.85c9.16,0,16.58-7.43,16.58-16.58s-7.43-16.58-16.58-16.58-16.58,7.43-16.58,16.58,7.43,16.58,16.58,16.58ZM44.38,15.32c4.94,0,8.94,4,8.94,8.94s-4,8.94-8.94,8.94-8.94-4-8.94-8.94,4-8.94,8.94-8.94Z"/>
        <polygon class="cls-6" points="88.53 40.21 98.78 40.21 85.37 22.8 98.12 9 88.4 9 76.32 21.96 76.32 9 67.58 9 67.58 40.21 76.32 40.21 76.32 32.39 79.59 28.88 88.53 40.21"/>
        <path class="cls-4" d="M21.53,10.52l-2.91,2.93c-.12.13-.19.3-.19.47v3.6c-.67.27-1.14.92-1.14,1.69,0,1,.81,1.82,1.8,1.82s1.8-.81,1.8-1.82c0-.76-.47-1.42-1.14-1.69v-3.32l1.77-1.79v8.43c-.67.27-1.14.92-1.14,1.69,0,1,.81,1.81,1.8,1.81s1.8-.81,1.8-1.81c0-.76-.47-1.42-1.14-1.69v-12.14h-1.33v1.82Z"/>
        <path class="cls-5" d="M32.59,26.33c.09.44-.19.87-.63.96-.44.09-.87-.19-.96-.63-.46-2.22-.36-4.54.3-6.72,2.18-7.2,9.81-11.29,17.01-9.11s11.29,9.81,9.11,17.01c-.84,2.78-2.54,5.19-4.82,6.92.15.51.16,1.07,0,1.62-.46,1.51-2.05,2.36-3.56,1.91s-2.36-2.05-1.91-3.56,2.05-2.36,3.56-1.91c.39.12.73.31,1.03.56,1.96-1.52,3.42-3.61,4.15-6.02,1.92-6.34-1.68-13.06-8.02-14.98s-13.06,1.68-14.98,8.02c-.58,1.92-.67,3.96-.27,5.91Z"/>
        <path class="cls-8" d="M37.35,7.78c1.61.49,3.3-.42,3.79-2.03.07-.23.11-.46.12-.69,2.74-.42,5.55-.22,8.26.6,9.92,3,15.56,13.51,12.56,23.44-3,9.92-13.51,15.56-23.44,12.56-.46-.14-.94.12-1.08.58s.12.94.58,1.08c10.84,3.28,22.32-2.88,25.6-13.71,3.28-10.84-2.88-22.32-13.71-25.6-3-.91-6.11-1.11-9.15-.63-.37-.65-.98-1.17-1.76-1.4-1.61-.49-3.31.42-3.79,2.03s.42,3.3,2.03,3.79Z"/>
        <path class="cls-7" d="M49.48,24.14c.12,2.14-.97,4.27-2.99,5.34-2.77,1.48-6.22.44-7.7-2.33s-.44-6.22,2.33-7.7c.34-.18.46-.6.28-.94s-.6-.46-.94-.28c-3.44,1.84-4.74,6.14-2.9,9.58s6.14,4.74,9.58,2.9c2.59-1.39,3.97-4.17,3.7-6.93,1.08-.67,1.48-2.07.87-3.21s-2.11-1.63-3.29-.99-1.63,2.11-.99,3.29c.42.79,1.22,1.25,2.05,1.28Z"/>
        <path class="cls-4" d="M74.66,16.03c0,1.2-.78,2.22-1.85,2.61l-.16,21.62h-1.96s.16-21.63.16-21.63c-1.06-.41-1.82-1.44-1.81-2.64.01-1.55,1.28-2.8,2.83-2.79,1.55.01,2.8,1.28,2.79,2.83Z"/>
        <g>
          <path class="cls-4" d="M80.32,23.98c-.74-.74-1.94-.76-2.66-.04-.72.72-.71,1.91.04,2.66.74.74,1.94.76,2.66.04.72-.72.71-1.91-.04-2.66Z"/>
          <polyline class="cls-1" points="72.63 27.89 75.88 27.89 78.22 25.84"/>
        </g>
      </g>
      <g>
        <polygon class="cls-3" points="151.63 18.14 147.08 26.1 142.53 18.14 142.29 18.14 142.29 27.85 142.57 27.85 142.57 18.76 146.99 26.48 147.16 26.48 151.59 18.74 151.59 27.85 151.86 27.85 151.86 18.14 151.63 18.14"/>
        <path class="cls-3" d="M157.94,27.89c-.67,0-1.26-.15-1.78-.46-.52-.31-.94-.74-1.24-1.29-.31-.55-.46-1.18-.46-1.88s.15-1.34.46-1.88c.31-.54.72-.97,1.24-1.28.52-.31,1.12-.46,1.78-.46s1.26.15,1.79.46c.53.31.94.74,1.24,1.28.3.54.45,1.17.45,1.88s-.15,1.33-.45,1.88c-.3.55-.71.98-1.24,1.29-.53.31-1.12.46-1.79.46ZM157.94,27.63c.61,0,1.16-.14,1.64-.43.49-.29.87-.68,1.14-1.19.28-.51.42-1.09.42-1.75s-.14-1.25-.42-1.75c-.28-.5-.66-.9-1.14-1.18-.49-.28-1.03-.42-1.64-.42s-1.16.14-1.64.42c-.48.28-.86.68-1.14,1.18-.28.5-.42,1.09-.42,1.75s.14,1.24.42,1.75c.28.51.66.91,1.14,1.19.48.29,1.03.43,1.64.43ZM157.32,19.43l1.94-1.53h.55l-2.08,1.53h-.42Z"/>
        <path class="cls-3" d="M165.35,27.85l-3.3-7.17h.32l3.18,6.98h-.11l3.18-6.98h.32l-3.3,7.17h-.28Z"/>
        <path class="cls-3" d="M170.74,18.69c-.09,0-.18-.04-.25-.11-.07-.07-.11-.16-.11-.25,0-.1.04-.19.11-.26.07-.07.16-.1.25-.1.1,0,.19.03.26.1.07.07.1.16.1.26,0,.09-.03.18-.1.25-.07.07-.16.11-.26.11ZM170.61,27.85v-7.17h.28v7.17h-.28Z"/>
        <path class="cls-3" d="M174.07,27.85v-10.29h.28v10.29h-.28Z"/>
        <path class="cls-3" d="M182.9,22.34c-.29-.54-.69-.95-1.19-1.26-.5-.3-1.07-.45-1.7-.45s-1.2.15-1.7.46c-.5.31-.9.74-1.19,1.28-.29.54-.43,1.17-.43,1.88s.15,1.33.46,1.88c.31.55.73.98,1.27,1.29.54.31,1.15.46,1.85.46.52,0,1.01-.1,1.47-.3.46-.2.85-.49,1.17-.88l-.19-.19c-.29.37-.65.65-1.08.83-.43.19-.89.28-1.37.28-.64,0-1.21-.14-1.71-.43-.5-.29-.89-.68-1.18-1.19-.29-.51-.43-1.09-.43-1.75h6.38v-.07c0-.69-.15-1.31-.44-1.85ZM177.35,22.51c.26-.5.63-.89,1.09-1.18.46-.29.99-.43,1.57-.43s1.12.14,1.57.43c.46.29.82.68,1.09,1.18.24.44.36.94.39,1.48h-6.1c.03-.54.15-1.04.38-1.48Z"/>
        <path class="cls-3" d="M187.34,27.89c-.58,0-1.13-.09-1.64-.28-.51-.18-.9-.42-1.17-.71l.17-.22c.26.25.62.47,1.08.66.46.19.98.28,1.55.28.85,0,1.46-.15,1.83-.44.37-.3.56-.68.56-1.15,0-.34-.09-.61-.26-.81-.18-.2-.41-.35-.7-.46-.29-.11-.61-.19-.96-.26-.35-.06-.7-.13-1.05-.21-.35-.07-.67-.18-.96-.31-.29-.13-.52-.32-.7-.55-.18-.24-.26-.55-.26-.95,0-.32.09-.62.26-.9.18-.28.45-.5.83-.68.37-.18.86-.26,1.45-.26.44,0,.88.07,1.32.2.43.13.79.31,1.05.53l-.17.22c-.29-.23-.62-.4-1.01-.52-.39-.12-.79-.17-1.19-.17-.79,0-1.36.15-1.71.46-.36.31-.53.68-.53,1.12,0,.35.09.63.26.84.18.21.41.37.7.48.29.11.61.2.96.26.35.06.7.13,1.05.21.35.07.67.18.96.31.29.13.52.31.7.53.18.23.26.53.26.92,0,.36-.1.68-.29.96-.19.28-.49.5-.88.66-.39.16-.89.24-1.49.24Z"/>
      </g>
      <line class="cls-2" x1="111" y1="16" x2="111" y2="32"/>
      <g>
        <path class="cls-6" d="M130.59,14.19c.68-.85,1.15-2.02,1.02-3.19-.99.04-2.19.67-2.89,1.51-.63.75-1.19,1.95-1.04,3.1,1.1.09,2.23-.57,2.92-1.42Z"/>
        <path class="cls-6" d="M133.06,21.63c0-.8.19-1.47.47-2.01.61-1.17,1.59-1.76,1.65-1.8-1.16-1.72-2.95-1.95-3.6-1.98-1.53-.16-2.98.92-3.76.92s-1.97-.89-3.24-.87c-1.67.03-3.21.99-4.07,2.51-.27.47-.46.98-.6,1.51-.73,2.9.41,6.47,1.84,8.57.83,1.21,1.81,2.58,3.1,2.53,1.25-.05,1.72-.82,3.22-.82s1.93.82,3.24.79c1.34-.02,2.19-1.24,3.01-2.46.95-1.41,1.34-2.77,1.36-2.84-.03-.01-2.61-1.02-2.64-4.05Z"/>
      </g>
    </g>
  </g>
</svg>