<?xml version="1.0" encoding="UTF-8"?>
<svg xmlns="http://www.w3.org/2000/svg" xmlns:xlink="http://www.w3.org/1999/xlink" viewBox="0 0 210 46">
  <defs>
    <style>
      .cls-1 {
        fill: aqua;
      }

      .cls-1, .cls-2, .cls-3, .cls-4, .cls-5 {
        stroke-width: 0px;
      }

      .cls-6 {
        isolation: isolate;
      }

      .cls-2 {
        fill: #fe8e2a;
      }

      .cls-7 {
        mix-blend-mode: multiply;
        opacity: .3;
        stroke-width: 1.5px;
      }

      .cls-7, .cls-8 {
        fill: none;
      }

      .cls-7, .cls-8, .cls-9 {
        stroke-miterlimit: 10;
      }

      .cls-7, .cls-9 {
        stroke: #4aaec1;
      }

      .cls-8 {
        stroke: aqua;
        stroke-width: 1.12px;
      }

      .cls-3 {
        fill: #131623;
      }

      .cls-4, .cls-9 {
        fill: #4aaec1;
      }

      .cls-5 {
        fill: url(#Degradado_sin_nombre_23);
      }

      .cls-9 {
        stroke-width: .19px;
      }
    </style>
    <linearGradient id="Degradado_sin_nombre_23" data-name="Degradado sin nombre 23" x1="49.9" y1="4.21" x2="49.9" y2="44.45" gradientUnits="userSpaceOnUse">
      <stop offset="0" stop-color="#e6e6e6"/>
      <stop offset=".29" stop-color="#a7a8ac"/>
      <stop offset="1" stop-color="#131623"/>
    </linearGradient>
  </defs>
  <g class="cls-6">
    <g id="Capa_1" data-name="Capa 1">
      <g>
        <path class="cls-3" d="M13.16,39.88c-2.24,0-4.27-.39-6.09-1.16-1.82-.77-3.33-1.89-4.52-3.34l4.72-5.59c.82,1.05,1.66,1.84,2.53,2.38.87.54,1.79.81,2.75.81,2.56,0,3.84-1.49,3.84-4.46v-13.15H5.82v-6.68h19.13v19.31c0,3.99-1,6.97-3.01,8.93-2.01,1.97-4.94,2.95-8.78,2.95Z"/>
        <path class="cls-3" d="M44.38,40.85c9.16,0,16.58-7.43,16.58-16.58s-7.43-16.58-16.58-16.58-16.58,7.43-16.58,16.58,7.43,16.58,16.58,16.58ZM44.38,15.32c4.94,0,8.94,4,8.94,8.94s-4,8.94-8.94,8.94-8.94-4-8.94-8.94,4-8.94,8.94-8.94Z"/>
        <polygon class="cls-3" points="88.53 40.21 98.78 40.21 85.37 22.8 98.12 9 88.4 9 76.32 21.96 76.32 9 67.58 9 67.58 40.21 76.32 40.21 76.32 32.39 79.59 28.88 88.53 40.21"/>
        <path class="cls-1" d="M21.53,10.52l-2.91,2.93c-.12.13-.19.3-.19.47v3.6c-.67.27-1.14.92-1.14,1.69,0,1,.81,1.82,1.8,1.82s1.8-.81,1.8-1.82c0-.76-.47-1.42-1.14-1.69v-3.32l1.77-1.79v8.43c-.67.27-1.14.92-1.14,1.69,0,1,.81,1.81,1.8,1.81s1.8-.81,1.8-1.81c0-.76-.47-1.42-1.14-1.69v-12.14h-1.33v1.82Z"/>
        <path class="cls-2" d="M32.59,26.33c.09.44-.19.87-.63.96-.44.09-.87-.19-.96-.63-.46-2.22-.36-4.54.3-6.72,2.18-7.2,9.81-11.29,17.01-9.11s11.29,9.81,9.11,17.01c-.84,2.78-2.54,5.19-4.82,6.92.15.51.16,1.07,0,1.62-.46,1.51-2.05,2.36-3.56,1.91s-2.36-2.05-1.91-3.56,2.05-2.36,3.56-1.91c.39.12.73.31,1.03.56,1.96-1.52,3.42-3.61,4.15-6.02,1.92-6.34-1.68-13.06-8.02-14.98s-13.06,1.68-14.98,8.02c-.58,1.92-.67,3.96-.27,5.91Z"/>
        <path class="cls-5" d="M37.35,7.78c1.61.49,3.3-.42,3.79-2.03.07-.23.11-.46.12-.69,2.74-.42,5.55-.22,8.26.6,9.92,3,15.56,13.51,12.56,23.44-3,9.92-13.51,15.56-23.44,12.56-.46-.14-.94.12-1.08.58s.12.94.58,1.08c10.84,3.28,22.32-2.88,25.6-13.71,3.28-10.84-2.88-22.32-13.71-25.6-3-.91-6.11-1.11-9.15-.63-.37-.65-.98-1.17-1.76-1.4-1.61-.49-3.31.42-3.79,2.03s.42,3.3,2.03,3.79Z"/>
        <path class="cls-4" d="M49.48,24.14c.12,2.14-.97,4.27-2.99,5.34-2.77,1.48-6.22.44-7.7-2.33s-.44-6.22,2.33-7.7c.34-.18.46-.6.28-.94s-.6-.46-.94-.28c-3.44,1.84-4.74,6.14-2.9,9.58s6.14,4.74,9.58,2.9c2.59-1.39,3.97-4.17,3.7-6.93,1.08-.67,1.48-2.07.87-3.21s-2.11-1.63-3.29-.99-1.63,2.11-.99,3.29c.42.79,1.22,1.25,2.05,1.28Z"/>
        <path class="cls-1" d="M74.66,16.03c0,1.2-.78,2.22-1.85,2.61l-.16,21.62h-1.96s.16-21.63.16-21.63c-1.06-.41-1.82-1.44-1.81-2.64.01-1.55,1.28-2.8,2.83-2.79,1.55.01,2.8,1.28,2.79,2.83Z"/>
        <g>
          <path class="cls-1" d="M80.32,23.98c-.74-.74-1.94-.76-2.66-.04-.72.72-.71,1.91.04,2.66.74.74,1.94.76,2.66.04.72-.72.71-1.91-.04-2.66Z"/>
          <polyline class="cls-8" points="72.63 27.89 75.88 27.89 78.22 25.84"/>
        </g>
      </g>
      <g>
        <path class="cls-9" d="M154,21.58c-.55,0-1.06-.1-1.55-.3-.48-.2-.85-.46-1.1-.77l.15-.14c.24.28.58.52,1.03.71.45.19.94.29,1.46.29s.99-.08,1.34-.23c.35-.15.61-.35.78-.61.17-.25.25-.54.25-.85,0-.36-.09-.65-.26-.87-.17-.22-.4-.39-.69-.52-.29-.13-.6-.23-.94-.31-.34-.08-.68-.17-1.02-.25-.34-.09-.66-.2-.94-.34-.29-.14-.52-.33-.69-.58-.17-.24-.26-.56-.26-.96,0-.33.09-.64.26-.93.18-.29.45-.52.82-.7.37-.18.85-.27,1.44-.27.4,0,.8.06,1.19.19.39.13.72.29,1,.5l-.12.17c-.3-.22-.64-.39-1-.5-.37-.11-.72-.16-1.06-.16-.52,0-.96.08-1.3.23-.34.15-.6.36-.77.61-.17.26-.25.54-.25.86,0,.37.09.66.26.88.17.22.4.39.69.52.29.13.6.23.94.31.34.08.68.17,1.02.26.34.09.65.2.94.34.29.14.52.33.69.57.17.24.26.55.26.94,0,.33-.09.64-.27.93-.18.29-.46.52-.84.69-.38.18-.87.26-1.47.26Z"/>
        <path class="cls-9" d="M160.49,21.58c-.52,0-.98-.12-1.38-.36-.41-.24-.73-.57-.96-1-.24-.43-.36-.91-.36-1.46s.12-1.04.36-1.46c.24-.42.56-.75.96-.99.41-.24.87-.36,1.38-.36s.98.12,1.39.36c.41.24.73.57.96.99.23.42.35.91.35,1.46s-.12,1.03-.35,1.46c-.23.43-.55.76-.96,1-.41.24-.87.36-1.39.36ZM160.49,21.38c.47,0,.9-.11,1.28-.33.38-.22.67-.53.89-.93.22-.39.32-.85.32-1.36s-.11-.97-.32-1.36c-.22-.39-.51-.7-.89-.92-.38-.22-.8-.33-1.28-.33s-.9.11-1.27.33c-.37.22-.67.52-.89.92-.22.39-.33.85-.33,1.36s.11.96.33,1.36c.22.4.52.7.89.93.37.22.8.33,1.27.33Z"/>
        <path class="cls-9" d="M165.01,21.55v-7.99h.22v7.99h-.22Z"/>
        <path class="cls-9" d="M172.17,15.98v3.03c0,.47-.09.88-.27,1.24-.18.36-.44.64-.78.84-.34.2-.74.3-1.21.3-.65,0-1.16-.18-1.52-.54-.36-.36-.54-.88-.54-1.57v-3.29h-.22v3.29c0,.5.09.93.27,1.27.18.34.45.61.79.78.34.18.75.26,1.22.26.57,0,1.06-.14,1.44-.43.37-.27.64-.64.8-1.09v1.48h.22v-5.57h-.22Z"/>
        <path class="cls-9" d="M176.94,21.58c-.52,0-.99-.12-1.41-.36-.41-.24-.74-.57-.98-1-.24-.42-.36-.91-.36-1.47s.12-1.04.36-1.47c.24-.42.56-.75.98-.99.41-.24.88-.36,1.41-.36.4,0,.78.08,1.13.23.35.15.64.38.88.68l-.15.16c-.22-.29-.48-.51-.81-.65s-.67-.21-1.05-.21c-.48,0-.91.11-1.29.33-.38.22-.68.52-.9.92-.22.39-.33.85-.33,1.36s.11.97.33,1.36c.22.39.52.7.9.92.38.22.81.33,1.29.33.37,0,.72-.07,1.05-.22.32-.14.59-.36.81-.65l.15.16c-.24.3-.53.53-.88.68-.35.15-.72.23-1.13.23Z"/>
        <path class="cls-9" d="M180.73,14.44c-.07,0-.14-.03-.19-.09-.06-.06-.09-.12-.09-.19,0-.08.03-.15.09-.2.06-.05.12-.08.19-.08.08,0,.15.03.2.08.05.05.08.12.08.2,0,.07-.03.14-.08.19-.05.06-.12.09-.2.09ZM180.63,21.55v-5.57h.22v5.57h-.22Z"/>
        <path class="cls-9" d="M185.37,21.58c-.52,0-.98-.12-1.38-.36-.41-.24-.73-.57-.96-1-.24-.43-.36-.91-.36-1.46s.12-1.04.36-1.46c.24-.42.56-.75.96-.99.41-.24.87-.36,1.38-.36s.98.12,1.39.36c.41.24.73.57.96.99.23.42.35.91.35,1.46s-.12,1.03-.35,1.46c-.23.43-.55.76-.96,1-.41.24-.87.36-1.39.36ZM185.37,21.38c.47,0,.9-.11,1.28-.33.38-.22.67-.53.89-.93.22-.39.32-.85.32-1.36s-.11-.97-.32-1.36c-.22-.39-.51-.7-.89-.92-.38-.22-.8-.33-1.28-.33s-.9.11-1.27.33c-.37.22-.67.52-.89.92-.22.39-.33.85-.33,1.36s.11.96.33,1.36c.22.4.52.7.89.93.37.22.8.33,1.27.33Z"/>
        <path class="cls-9" d="M194.4,16.99c-.18-.34-.44-.61-.77-.78-.33-.18-.73-.26-1.19-.26-.6,0-1.11.14-1.51.43-.39.27-.66.64-.83,1.1v-1.49h-.22v5.57h.22v-3.03c0-.47.09-.89.28-1.24.19-.36.46-.63.81-.83.35-.2.77-.3,1.26-.3.63,0,1.12.18,1.48.54.35.36.53.88.53,1.57v3.29h.22v-3.29c0-.5-.09-.93-.27-1.27Z"/>
        <path class="cls-9" d="M201.26,17.27c-.23-.42-.54-.74-.93-.98-.39-.23-.83-.35-1.32-.35s-.93.12-1.32.36c-.39.24-.7.57-.92.99-.22.42-.33.91-.33,1.46s.12,1.03.36,1.46c.24.43.57.76.99,1,.42.24.89.36,1.43.36.4,0,.78-.08,1.14-.23.36-.15.66-.38.91-.68l-.15-.15c-.22.29-.5.5-.84.65-.33.14-.69.22-1.06.22-.5,0-.94-.11-1.33-.33-.39-.22-.69-.53-.92-.93-.22-.39-.33-.85-.33-1.36h4.96v-.05c0-.54-.11-1.02-.34-1.43ZM196.95,17.4c.2-.39.49-.69.85-.92.36-.22.77-.33,1.22-.33s.87.11,1.22.33c.36.22.64.53.85.92.18.34.28.73.3,1.15h-4.73c.02-.42.12-.81.3-1.15Z"/>
        <path class="cls-9" d="M204.7,21.58c-.45,0-.88-.07-1.27-.22-.4-.14-.7-.33-.91-.55l.13-.17c.2.19.48.36.84.51.36.15.76.22,1.21.22.66,0,1.13-.11,1.42-.34.29-.23.43-.53.43-.89,0-.27-.07-.48-.2-.63-.14-.15-.32-.27-.54-.36-.23-.08-.48-.15-.75-.2-.27-.05-.55-.1-.82-.16-.27-.06-.52-.14-.75-.24-.23-.1-.41-.25-.54-.43-.14-.18-.2-.43-.2-.74,0-.25.07-.48.2-.7.14-.22.35-.39.64-.53.29-.14.67-.2,1.13-.2.34,0,.69.05,1.02.16.34.1.61.24.82.41l-.13.17c-.22-.18-.48-.31-.79-.4-.3-.09-.61-.13-.93-.13-.61,0-1.05.12-1.33.36-.28.24-.41.53-.41.87,0,.27.07.49.2.65.14.16.32.29.54.37.23.09.48.15.75.2.27.05.54.1.81.16.27.06.52.14.74.24.23.1.41.24.54.41.14.18.2.41.2.72,0,.28-.08.53-.23.75-.15.22-.38.39-.68.51-.31.12-.69.18-1.16.18Z"/>
        <polygon class="cls-9" points="158.54 24.01 155.01 30.2 151.47 24.01 151.29 24.01 151.29 31.55 151.51 31.55 151.51 24.49 154.94 30.48 155.07 30.48 158.51 24.47 158.51 31.55 158.73 31.55 158.73 24.01 158.54 24.01"/>
        <path class="cls-9" d="M163.45,31.58c-.52,0-.98-.12-1.38-.36-.41-.24-.73-.57-.96-1-.24-.43-.36-.91-.36-1.46s.12-1.04.36-1.46c.24-.42.56-.75.96-.99.41-.24.87-.36,1.38-.36s.98.12,1.39.36c.41.24.73.57.96.99.23.42.35.91.35,1.46s-.12,1.03-.35,1.46c-.23.43-.55.76-.96,1-.41.24-.87.36-1.39.36ZM163.45,31.38c.47,0,.9-.11,1.28-.33.38-.22.67-.53.89-.93.22-.39.32-.85.32-1.36s-.11-.97-.32-1.36c-.22-.39-.51-.7-.89-.92-.38-.22-.8-.33-1.28-.33s-.9.11-1.27.33c-.37.22-.67.52-.89.92-.22.39-.33.85-.33,1.36s.11.96.33,1.36c.22.4.52.7.89.93.37.22.8.33,1.27.33ZM162.96,25.01l1.51-1.19h.43l-1.62,1.19h-.32Z"/>
        <path class="cls-9" d="M169.2,31.55l-2.56-5.57h.25l2.47,5.42h-.09l2.47-5.42h.25l-2.56,5.57h-.22Z"/>
        <path class="cls-9" d="M173.39,24.44c-.07,0-.14-.03-.19-.09-.06-.06-.09-.12-.09-.19,0-.08.03-.15.09-.2.06-.05.12-.08.19-.08.08,0,.15.03.2.08.05.05.08.12.08.2,0,.07-.03.14-.08.19-.05.06-.12.09-.2.09ZM173.28,31.55v-5.57h.22v5.57h-.22Z"/>
        <path class="cls-9" d="M175.98,31.55v-7.99h.22v7.99h-.22Z"/>
        <path class="cls-9" d="M182.83,27.27c-.23-.42-.54-.74-.93-.98-.39-.23-.83-.35-1.32-.35s-.93.12-1.32.36c-.39.24-.7.57-.92.99-.22.42-.33.91-.33,1.46s.12,1.03.36,1.46c.24.43.57.76.99,1,.42.24.89.36,1.43.36.4,0,.78-.08,1.14-.23.36-.15.66-.38.91-.68l-.15-.15c-.22.29-.5.5-.83.65-.33.14-.69.22-1.06.22-.5,0-.94-.11-1.33-.33-.39-.22-.69-.53-.92-.93-.22-.39-.33-.85-.33-1.36h4.96v-.05c0-.54-.11-1.02-.34-1.43ZM178.52,27.4c.2-.39.49-.69.85-.92.36-.22.77-.33,1.22-.33s.87.11,1.22.33c.36.22.64.53.85.92.18.34.28.73.3,1.15h-4.73c.02-.42.12-.81.3-1.15Z"/>
        <path class="cls-9" d="M186.28,31.58c-.45,0-.88-.07-1.27-.22-.4-.14-.7-.33-.91-.55l.13-.17c.2.19.48.36.84.51.36.15.76.22,1.21.22.66,0,1.13-.11,1.42-.34.29-.23.43-.53.43-.89,0-.27-.07-.48-.2-.63-.14-.15-.32-.27-.54-.36-.23-.08-.48-.15-.75-.2-.27-.05-.55-.1-.82-.16-.27-.06-.52-.14-.75-.24-.23-.1-.41-.25-.54-.43-.14-.18-.2-.43-.2-.74,0-.25.07-.48.2-.7.14-.22.35-.39.64-.53.29-.14.67-.2,1.13-.2.34,0,.69.05,1.02.16.34.1.61.24.82.41l-.13.17c-.22-.18-.48-.31-.79-.4-.3-.09-.61-.13-.93-.13-.61,0-1.05.12-1.33.36-.28.24-.41.53-.41.87,0,.27.07.49.2.65.14.16.32.29.54.37.23.09.48.15.75.2.27.05.54.1.81.16.27.06.52.14.74.24.23.1.41.24.54.41.14.18.2.41.2.72,0,.28-.08.53-.23.75-.15.22-.38.39-.68.51-.31.12-.69.18-1.16.18Z"/>
      </g>
      <line class="cls-7" x1="111" y1="15" x2="111" y2="31"/>
      <g>
        <path class="cls-3" d="M137.83,12.72c.83-1.02,1.39-2.44,1.23-3.85-1.19.05-2.64.81-3.49,1.83-.77.91-1.44,2.35-1.26,3.74,1.33.11,2.69-.69,3.52-1.71Z"/>
        <path class="cls-3" d="M140.82,21.69c0-.97.23-1.77.57-2.43.73-1.42,1.91-2.12,1.99-2.17-1.39-2.07-3.56-2.36-4.34-2.39-1.85-.19-3.6,1.11-4.54,1.11s-2.38-1.08-3.91-1.05c-2.01.03-3.87,1.19-4.9,3.03-.32.57-.56,1.18-.72,1.82-.88,3.5.5,7.81,2.22,10.34,1,1.47,2.18,3.11,3.74,3.05,1.5-.06,2.07-.99,3.88-.99s2.33.99,3.91.96c1.61-.03,2.64-1.49,3.63-2.96,1.14-1.7,1.61-3.35,1.64-3.43-.04-.02-3.15-1.23-3.18-4.88Z"/>
      </g>
    </g>
  </g>
</svg>